# xmcd CD database file
#
# Track frame offsets:
#	182
#	31010
#	60775
#	96767
#	158902
#
# Disc length: 2619 seconds
#
# Revision: 1
# Processed by: cddbd v1.5.2PL0 Copyright (c) Steve Scherf et al.
# Submitted via: CDex 1.77
#
DISCID=2b0a3905
DTITLE=Duke Ellington - Ellington Uptown
DYEAR=1953
DGENRE=Jazz
TTITLE0=Skin Deep
TTITLE1=The Mooche
TTITLE2=Take the "A" Train
TTITLE3=A Tone Parallel to Harlem (the Harlem Suite)
TTITLE4=Perdido
EXTD=Ellington Uptown, Columbia 1953 YEAR: 1953
EXTT0=
EXTT1=
EXTT2=
EXTT3=
EXTT4=
PLAYORDER=
